<mxfile host="app.diagrams.net" modified="2024-06-11T19:40:18.118Z" agent="Mozilla/5.0 (Macintosh; Intel Mac OS X 10_15_7) AppleWebKit/605.1.15 (KHTML, like Gecko) Version/17.5 Safari/605.1.15" etag="d3yOPAxbFOgf8pafN-aV" version="24.4.13" type="google">
  <diagram name="Página-1" id="S6BAX7dbSIMlFgmt_JcL">
    <mxGraphModel grid="1" page="1" gridSize="10" guides="1" tooltips="1" connect="1" arrows="1" fold="1" pageScale="1" pageWidth="827" pageHeight="1169" math="0" shadow="0">
      <root>
        <mxCell id="0" />
        <mxCell id="1" parent="0" />
        <mxCell id="E_nThtKlathOeHzJ6YZ2-23" style="edgeStyle=orthogonalEdgeStyle;rounded=0;orthogonalLoop=1;jettySize=auto;html=1;entryX=0.5;entryY=0;entryDx=0;entryDy=0;endArrow=none;endFill=0;" edge="1" parent="1" source="E_nThtKlathOeHzJ6YZ2-15" target="E_nThtKlathOeHzJ6YZ2-22">
          <mxGeometry relative="1" as="geometry" />
        </mxCell>
        <mxCell id="E_nThtKlathOeHzJ6YZ2-27" style="edgeStyle=orthogonalEdgeStyle;rounded=0;orthogonalLoop=1;jettySize=auto;html=1;entryX=0;entryY=0.5;entryDx=0;entryDy=0;endArrow=none;endFill=0;" edge="1" parent="1" source="E_nThtKlathOeHzJ6YZ2-15" target="E_nThtKlathOeHzJ6YZ2-24">
          <mxGeometry relative="1" as="geometry">
            <Array as="points">
              <mxPoint x="260" y="-705" />
              <mxPoint x="260" y="-485" />
            </Array>
          </mxGeometry>
        </mxCell>
        <mxCell id="2nTUKQ17-FYdA7R7akEU-3" style="edgeStyle=orthogonalEdgeStyle;rounded=0;orthogonalLoop=1;jettySize=auto;html=1;" edge="1" parent="1" source="E_nThtKlathOeHzJ6YZ2-15" target="E_nThtKlathOeHzJ6YZ2-19">
          <mxGeometry relative="1" as="geometry" />
        </mxCell>
        <mxCell id="2nTUKQ17-FYdA7R7akEU-5" style="edgeStyle=orthogonalEdgeStyle;rounded=0;orthogonalLoop=1;jettySize=auto;html=1;" edge="1" parent="1" source="E_nThtKlathOeHzJ6YZ2-15" target="SNDjTweo43myCKAQD7nz-5">
          <mxGeometry relative="1" as="geometry" />
        </mxCell>
        <mxCell id="E_nThtKlathOeHzJ6YZ2-15" value="&lt;p style=&quot;margin:0px;margin-top:4px;text-align:center;text-decoration:underline;&quot;&gt;&lt;b&gt;Silo&lt;/b&gt;&lt;/p&gt;&lt;hr size=&quot;1&quot; style=&quot;border-style:solid;&quot;&gt;&lt;p style=&quot;margin:0px;margin-left:8px;&quot;&gt;id_silo&lt;/p&gt;&lt;p style=&quot;margin:0px;margin-left:8px;&quot;&gt;nombre&lt;/p&gt;&lt;p style=&quot;margin:0px;margin-left:8px;&quot;&gt;id_campo&lt;/p&gt;&lt;p style=&quot;margin:0px;margin-left:8px;&quot;&gt;id_grano&lt;/p&gt;&lt;p style=&quot;margin:0px;margin-left:8px;&quot;&gt;cantidad&lt;/p&gt;" style="verticalAlign=top;align=left;overflow=fill;html=1;whiteSpace=wrap;" vertex="1" parent="1">
          <mxGeometry x="50" y="-800" width="160" height="120" as="geometry" />
        </mxCell>
        <mxCell id="E_nThtKlathOeHzJ6YZ2-20" style="edgeStyle=orthogonalEdgeStyle;rounded=0;orthogonalLoop=1;jettySize=auto;html=1;entryX=1;entryY=0.5;entryDx=0;entryDy=0;endArrow=none;endFill=0;" edge="1" parent="1" source="E_nThtKlathOeHzJ6YZ2-16" target="E_nThtKlathOeHzJ6YZ2-19">
          <mxGeometry relative="1" as="geometry" />
        </mxCell>
        <mxCell id="2nTUKQ17-FYdA7R7akEU-4" style="edgeStyle=orthogonalEdgeStyle;rounded=0;orthogonalLoop=1;jettySize=auto;html=1;" edge="1" parent="1" source="E_nThtKlathOeHzJ6YZ2-16" target="E_nThtKlathOeHzJ6YZ2-39">
          <mxGeometry relative="1" as="geometry" />
        </mxCell>
        <mxCell id="E_nThtKlathOeHzJ6YZ2-16" value="&lt;p style=&quot;margin:0px;margin-top:4px;text-align:center;text-decoration:underline;&quot;&gt;&lt;b&gt;Región&lt;/b&gt;&lt;/p&gt;&lt;hr size=&quot;1&quot; style=&quot;border-style:solid;&quot;&gt;&lt;p style=&quot;margin:0px;margin-left:8px;&quot;&gt;&lt;span style=&quot;background-color: initial;&quot;&gt;id_región&lt;/span&gt;&lt;br&gt;&lt;/p&gt;&lt;p style=&quot;margin:0px;margin-left:8px;&quot;&gt;&lt;span style=&quot;background-color: initial;&quot;&gt;nombre&lt;/span&gt;&lt;/p&gt;&lt;p style=&quot;margin:0px;margin-left:8px;&quot;&gt;&lt;span style=&quot;background-color: initial;&quot;&gt;provincia&lt;/span&gt;&lt;/p&gt;" style="verticalAlign=top;align=left;overflow=fill;html=1;whiteSpace=wrap;" vertex="1" parent="1">
          <mxGeometry x="310" y="-965" width="160" height="90" as="geometry" />
        </mxCell>
        <mxCell id="E_nThtKlathOeHzJ6YZ2-19" value="&lt;p style=&quot;margin:0px;margin-top:4px;text-align:center;text-decoration:underline;&quot;&gt;&lt;b&gt;Campo&lt;/b&gt;&lt;/p&gt;&lt;hr size=&quot;1&quot; style=&quot;border-style:solid;&quot;&gt;&lt;p style=&quot;margin:0px;margin-left:8px;&quot;&gt;id_campo&lt;/p&gt;&lt;p style=&quot;margin:0px;margin-left:8px;&quot;&gt;&lt;span style=&quot;background-color: initial;&quot;&gt;nombre&lt;/span&gt;&lt;/p&gt;&lt;p style=&quot;margin:0px;margin-left:8px;&quot;&gt;id_región&lt;/p&gt;" style="verticalAlign=top;align=left;overflow=fill;html=1;whiteSpace=wrap;" vertex="1" parent="1">
          <mxGeometry x="50" y="-965" width="160" height="90" as="geometry" />
        </mxCell>
        <mxCell id="E_nThtKlathOeHzJ6YZ2-30" style="edgeStyle=orthogonalEdgeStyle;rounded=0;orthogonalLoop=1;jettySize=auto;html=1;entryX=0.5;entryY=1;entryDx=0;entryDy=0;startArrow=none;startFill=0;endArrow=none;endFill=0;" edge="1" parent="1" source="E_nThtKlathOeHzJ6YZ2-22" target="E_nThtKlathOeHzJ6YZ2-29">
          <mxGeometry relative="1" as="geometry">
            <Array as="points">
              <mxPoint x="130" y="-340" />
              <mxPoint x="680" y="-340" />
              <mxPoint x="680" y="-365" />
            </Array>
          </mxGeometry>
        </mxCell>
        <mxCell id="E_nThtKlathOeHzJ6YZ2-22" value="&lt;p style=&quot;margin:0px;margin-top:4px;text-align:center;text-decoration:underline;&quot;&gt;&lt;b&gt;Grano&lt;/b&gt;&lt;/p&gt;&lt;hr size=&quot;1&quot; style=&quot;border-style:solid;&quot;&gt;&lt;p style=&quot;margin:0px;margin-left:8px;&quot;&gt;id_grano&lt;/p&gt;&lt;p style=&quot;margin:0px;margin-left:8px;&quot;&gt;nombre&lt;/p&gt;&lt;p style=&quot;margin:0px;margin-left:8px;&quot;&gt;descripción&lt;/p&gt;" style="verticalAlign=top;align=left;overflow=fill;html=1;whiteSpace=wrap;" vertex="1" parent="1">
          <mxGeometry x="50" y="-605" width="160" height="110" as="geometry" />
        </mxCell>
        <mxCell id="2nTUKQ17-FYdA7R7akEU-7" style="edgeStyle=orthogonalEdgeStyle;rounded=0;orthogonalLoop=1;jettySize=auto;html=1;" edge="1" parent="1" source="E_nThtKlathOeHzJ6YZ2-24" target="E_nThtKlathOeHzJ6YZ2-26">
          <mxGeometry relative="1" as="geometry" />
        </mxCell>
        <mxCell id="2nTUKQ17-FYdA7R7akEU-8" style="edgeStyle=orthogonalEdgeStyle;rounded=0;orthogonalLoop=1;jettySize=auto;html=1;" edge="1" parent="1" source="E_nThtKlathOeHzJ6YZ2-24" target="E_nThtKlathOeHzJ6YZ2-29">
          <mxGeometry relative="1" as="geometry" />
        </mxCell>
        <mxCell id="E_nThtKlathOeHzJ6YZ2-24" value="&lt;p style=&quot;margin:0px;margin-top:4px;text-align:center;text-decoration:underline;&quot;&gt;&lt;b&gt;Egreso&lt;/b&gt;&lt;/p&gt;&lt;hr size=&quot;1&quot; style=&quot;border-style:solid;&quot;&gt;&lt;p style=&quot;margin:0px;margin-left:8px;&quot;&gt;id_egreso&lt;/p&gt;&lt;p style=&quot;margin:0px;margin-left:8px;&quot;&gt;id_declaración&lt;/p&gt;&lt;p style=&quot;margin:0px;margin-left:8px;&quot;&gt;fecha&lt;/p&gt;&lt;p style=&quot;margin:0px;margin-left:8px;&quot;&gt;id_empresa&lt;/p&gt;&lt;p style=&quot;margin:0px;margin-left:8px;&quot;&gt;id_silo&lt;/p&gt;&lt;p style=&quot;margin:0px;margin-left:8px;&quot;&gt;cantidad&lt;/p&gt;&lt;p style=&quot;margin:0px;margin-left:8px;&quot;&gt;id_contrato&lt;/p&gt;&lt;p style=&quot;margin:0px;margin-left:8px;&quot;&gt;camión&lt;/p&gt;&lt;p style=&quot;margin:0px;margin-left:8px;&quot;&gt;chofer&lt;/p&gt;&lt;p style=&quot;margin:0px;margin-left:8px;&quot;&gt;transportista&lt;/p&gt;&lt;p style=&quot;margin:0px;margin-left:8px;&quot;&gt;destino&lt;/p&gt;&lt;p style=&quot;margin:0px;margin-left:8px;&quot;&gt;cp&lt;/p&gt;&lt;p style=&quot;margin:0px;margin-left:8px;&quot;&gt;ctg&lt;/p&gt;&lt;p style=&quot;margin:0px;margin-left:8px;&quot;&gt;descripción&lt;/p&gt;&lt;p style=&quot;margin:0px;margin-left:8px;&quot;&gt;&lt;br&gt;&lt;/p&gt;&lt;p style=&quot;margin:0px;margin-left:8px;&quot;&gt;&lt;br&gt;&lt;/p&gt;" style="verticalAlign=top;align=left;overflow=fill;html=1;whiteSpace=wrap;" vertex="1" parent="1">
          <mxGeometry x="310" y="-605" width="160" height="240" as="geometry" />
        </mxCell>
        <mxCell id="E_nThtKlathOeHzJ6YZ2-26" value="&lt;p style=&quot;margin:0px;margin-top:4px;text-align:center;text-decoration:underline;&quot;&gt;&lt;b&gt;Empresa&lt;/b&gt;&lt;/p&gt;&lt;hr size=&quot;1&quot; style=&quot;border-style:solid;&quot;&gt;&lt;p style=&quot;margin:0px;margin-left:8px;&quot;&gt;id_empresa&lt;/p&gt;&lt;p style=&quot;margin:0px;margin-left:8px;&quot;&gt;nombre&lt;/p&gt;&lt;p style=&quot;margin:0px;margin-left:8px;&quot;&gt;cuit&lt;/p&gt;&lt;p style=&quot;margin:0px;margin-left:8px;&quot;&gt;tipo&lt;/p&gt;&lt;p style=&quot;margin:0px;margin-left:8px;&quot;&gt;&lt;br&gt;&lt;/p&gt;" style="verticalAlign=top;align=left;overflow=fill;html=1;whiteSpace=wrap;" vertex="1" parent="1">
          <mxGeometry x="580" y="-715" width="160" height="110" as="geometry" />
        </mxCell>
        <mxCell id="2nTUKQ17-FYdA7R7akEU-9" style="edgeStyle=orthogonalEdgeStyle;rounded=0;orthogonalLoop=1;jettySize=auto;html=1;entryX=0.5;entryY=1;entryDx=0;entryDy=0;" edge="1" parent="1" source="E_nThtKlathOeHzJ6YZ2-29" target="E_nThtKlathOeHzJ6YZ2-26">
          <mxGeometry relative="1" as="geometry" />
        </mxCell>
        <mxCell id="E_nThtKlathOeHzJ6YZ2-29" value="&lt;p style=&quot;margin:0px;margin-top:4px;text-align:center;text-decoration:underline;&quot;&gt;&lt;b&gt;Contrato&lt;/b&gt;&lt;/p&gt;&lt;hr size=&quot;1&quot; style=&quot;border-style:solid;&quot;&gt;&lt;p style=&quot;margin:0px;margin-left:8px;&quot;&gt;id_contrato&lt;/p&gt;&lt;p style=&quot;margin:0px;margin-left:8px;&quot;&gt;fecha&lt;/p&gt;&lt;p style=&quot;margin:0px;margin-left:8px;&quot;&gt;tipo&lt;/p&gt;&lt;p style=&quot;margin:0px;margin-left:8px;&quot;&gt;descripción&lt;/p&gt;&lt;p style=&quot;margin:0px;margin-left:8px;&quot;&gt;id_grano&lt;/p&gt;&lt;p style=&quot;margin:0px;margin-left:8px;&quot;&gt;cantidad (opcional)&lt;/p&gt;&lt;p style=&quot;margin:0px;margin-left:8px;&quot;&gt;id_empresa&lt;/p&gt;&lt;p style=&quot;margin:0px;margin-left:8px;&quot;&gt;fecha límite (opcional)&lt;/p&gt;&lt;p style=&quot;margin:0px;margin-left:8px;&quot;&gt;precio (opcional)&lt;/p&gt;&lt;p style=&quot;margin:0px;margin-left:8px;&quot;&gt;estado&lt;/p&gt;" style="verticalAlign=top;align=left;overflow=fill;html=1;whiteSpace=wrap;" vertex="1" parent="1">
          <mxGeometry x="580" y="-545" width="160" height="180" as="geometry" />
        </mxCell>
        <mxCell id="E_nThtKlathOeHzJ6YZ2-39" value="&lt;p style=&quot;margin:0px;margin-top:4px;text-align:center;text-decoration:underline;&quot;&gt;&lt;b&gt;Declaración&lt;/b&gt;&lt;/p&gt;&lt;hr size=&quot;1&quot; style=&quot;border-style:solid;&quot;&gt;&lt;p style=&quot;margin:0px;margin-left:8px;&quot;&gt;&lt;span style=&quot;background-color: initial;&quot;&gt;id_declaración&lt;br&gt;&lt;/span&gt;&lt;/p&gt;&lt;p style=&quot;margin:0px;margin-left:8px;&quot;&gt;&lt;span style=&quot;background-color: initial;&quot;&gt;id_ región&lt;/span&gt;&lt;/p&gt;&lt;p style=&quot;margin:0px;margin-left:8px;&quot;&gt;&lt;span style=&quot;background-color: initial;&quot;&gt;id_grano&lt;/span&gt;&lt;/p&gt;&lt;p style=&quot;margin:0px;margin-left:8px;&quot;&gt;&lt;span style=&quot;background-color: initial;&quot;&gt;campaña&lt;/span&gt;&lt;/p&gt;&lt;p style=&quot;margin:0px;margin-left:8px;&quot;&gt;nombre&lt;/p&gt;&lt;p style=&quot;margin:0px;margin-left:8px;&quot;&gt;fecha&lt;/p&gt;&lt;p style=&quot;margin:0px;margin-left:8px;&quot;&gt;cantidad&lt;/p&gt;&lt;p style=&quot;margin:0px;margin-left:8px;&quot;&gt;descripción&lt;/p&gt;" style="verticalAlign=top;align=left;overflow=fill;html=1;whiteSpace=wrap;" vertex="1" parent="1">
          <mxGeometry x="580" y="-1000" width="160" height="160" as="geometry" />
        </mxCell>
        <mxCell id="2nTUKQ17-FYdA7R7akEU-6" style="edgeStyle=orthogonalEdgeStyle;rounded=0;orthogonalLoop=1;jettySize=auto;html=1;entryX=0;entryY=0.5;entryDx=0;entryDy=0;" edge="1" parent="1" source="SNDjTweo43myCKAQD7nz-5" target="E_nThtKlathOeHzJ6YZ2-26">
          <mxGeometry relative="1" as="geometry" />
        </mxCell>
        <mxCell id="SNDjTweo43myCKAQD7nz-5" value="&lt;p style=&quot;margin:0px;margin-top:4px;text-align:center;text-decoration:underline;&quot;&gt;&lt;b&gt;Ingreso&lt;/b&gt;&lt;/p&gt;&lt;hr size=&quot;1&quot; style=&quot;border-style:solid;&quot;&gt;&lt;p style=&quot;margin:0px;margin-left:8px;&quot;&gt;id_ingreso&lt;/p&gt;&lt;p style=&quot;margin:0px;margin-left:8px;&quot;&gt;tipo&lt;/p&gt;&lt;p style=&quot;margin:0px;margin-left:8px;&quot;&gt;fecha&lt;/p&gt;&lt;p style=&quot;margin:0px;margin-left:8px;&quot;&gt;id_silo&lt;/p&gt;&lt;p style=&quot;margin:0px;margin-left:8px;&quot;&gt;cantidad&lt;/p&gt;&lt;p style=&quot;margin:0px;margin-left:8px;&quot;&gt;id_empresa&lt;/p&gt;&lt;p style=&quot;margin:0px;margin-left:8px;&quot;&gt;descripción&amp;nbsp;&lt;/p&gt;&lt;p style=&quot;margin:0px;margin-left:8px;&quot;&gt;id_contrato (opcional)&lt;/p&gt;" style="verticalAlign=top;align=left;overflow=fill;html=1;whiteSpace=wrap;" vertex="1" parent="1">
          <mxGeometry x="310" y="-825" width="160" height="170" as="geometry" />
        </mxCell>
      </root>
    </mxGraphModel>
  </diagram>
</mxfile>
